<?xml version="1.0" encoding="UTF-8" standalone="no"?>
<svg
   xmlns:dc="http://purl.org/dc/elements/1.1/"
   xmlns:cc="http://creativecommons.org/ns#"
   xmlns:rdf="http://www.w3.org/1999/02/22-rdf-syntax-ns#"
   xmlns:svg="http://www.w3.org/2000/svg"
   xmlns="http://www.w3.org/2000/svg"
   xmlns:sodipodi="http://sodipodi.sourceforge.net/DTD/sodipodi-0.dtd"
   xmlns:inkscape="http://www.inkscape.org/namespaces/inkscape"
   sodipodi:docname="SHYAHI_LEKHAK_LOGO_SVG.svg"
   inkscape:version="1.0 (4035a4fb49, 2020-05-01)"
   id="svg8"
   version="1.1"
   viewBox="0 0 81.350578 44.837055"
   height="44.837055mm"
   width="81.350578mm">
  <defs
     id="defs2" />
  <sodipodi:namedview
     inkscape:window-maximized="1"
     inkscape:window-y="-8"
     inkscape:window-x="-8"
     inkscape:window-height="837"
     inkscape:window-width="1600"
     fit-margin-bottom="0"
     fit-margin-right="0"
     fit-margin-left="0"
     fit-margin-top="0"
     inkscape:snap-global="false"
     showgrid="false"
     inkscape:document-rotation="0"
     inkscape:current-layer="layer1"
     inkscape:document-units="mm"
     inkscape:cy="22.394877"
     inkscape:cx="208.26738"
     inkscape:zoom="0.49497475"
     inkscape:pageshadow="2"
     inkscape:pageopacity="0.0"
     borderopacity="1.0"
     bordercolor="#666666"
     pagecolor="#ffffff"
     id="base" />
  <metadata
     id="metadata5">
    <rdf:RDF>
      <cc:Work
         rdf:about="">
        <dc:format>image/svg+xml</dc:format>
        <dc:type
           rdf:resource="http://purl.org/dc/dcmitype/StillImage" />
        <dc:title></dc:title>
      </cc:Work>
    </rdf:RDF>
  </metadata>
  <g
     transform="translate(296.4806,-75.689954)"
     id="layer1"
     inkscape:groupmode="layer"
     inkscape:label="Layer 1">
    <path
       transform="scale(0.26458333)"
       d="m -941.78516,286.07227 -12.5,76.07031 h 9.64258 L -934.82227,293.75 -925,362.14258 h 9.46484 l -12.85742,-76.07031 z m -56.07226,1.07031 -10.53518,0.35742 c 0,0 10.9283,35.3024 15.6094,48.29297 v 24.74219 h 10.99804 V 335.75391 C -977.097,322.73476 -966.18945,287.5 -966.18945,287.5 l -10.53516,-0.35742 -10.56641,38.30273 z m -64.56838,0.17969 v 31.46289 10.28711 31.46289 h 10.9981 v -31.46289 h 15.2519 v 31.46289 h 10.9981 v -73.21289 h -10.9981 v 31.46289 h -15.2519 v -31.46289 z m 166.42189,0 v 31.46289 10.28711 31.46289 h 10.99805 v -31.46289 h 15.25195 v 31.46289 h 10.99805 v -73.21289 h -10.99805 v 31.46289 h -15.25195 v -31.46289 z m 60.0918,0 v 73.21289 h 10.99609 V 287.32227 Z M -1111.2305,287.5 c -2.3214,0 -5,1.875 -5,5 V 320 c 0,4.28572 3.7486,7.32227 6.3379,7.32227 h 16.6074 v 19.73046 c 0,2.67857 -0.6028,4.85352 -2.8007,4.85352 h -6.6621 c -1.7858,0 -2.5606,-0.71427 -2.5606,-2.56055 v -9.9707 h -10.3867 v 14.10742 c 0,3.48215 2.1429,7.23242 6.25,7.23242 h 20.9824 c 3.125,0 5.9824,-3.21456 5.9824,-7.23242 v -28.66015 c 0,-4.19644 -3.3049,-6.16211 -6.1621,-6.16211 h -17.2304 v -20.80274 c 0,-2.5 1.339,-1.96484 2.1425,-1.96484 h 9.8203 c 1.5179,0 1.1368,1.9586 1.1368,4.23828 v 7.63672 h 10.3808 v -14.73242 c 0,-2.41073 -1.6956,-5.53516 -5.1777,-5.53516 z m 214.90238,91.96484 -12.5,76.07032 h 9.64257 l 9.82032,-68.39258 9.82226,68.39258 h 9.46485 l -12.85743,-76.07032 z m -224.22848,1.42774 v 73.21484 h 10.998 v -0.2168 h 18.6074 v -10.99609 h -18.6074 v -20.60937 h 59.502 v -10.99805 h -59.502 v -30.39453 z m 99.6445,0 v 73.21484 h 10.9961 v -73.21484 z m 55.71288,0 v 31.46484 10.28516 31.46484 h 10.99805 v -31.46484 h 15.25195 v 31.46484 h 10.99805 v -73.21484 h -10.99805 v 31.46484 h -15.25195 v -31.46484 z m 112.98242,0 v 73.21484 h 10.9961 v -73.21484 z m -141.89062,0.35742 -14.46488,33.21484 v 5.17774 l 13.92972,34.82226 h 12.85742 l -16.42968,-36.25 16.07226,-36.96484 z m 168.69531,0 -14.46289,33.21484 v 5.17774 l 13.92773,34.82226 h 12.85743 l -16.42969,-36.25 16.07226,-36.96484 z m -257.85939,2.53711 v 10.99805 h 51.9649 v -10.99805 z m 0,59.10742 v 10.99609 h 51.9649 v -10.99609 z"
       style="fill:#000000;stroke:none;stroke-width:0.999999px;stroke-linecap:butt;stroke-linejoin:miter;stroke-opacity:1"
       id="path24" />
  </g>
</svg>
